<svg width="20" height="19" viewBox="0 0 20 19" fill="none" xmlns="http://www.w3.org/2000/svg">
<path d="M9.19141 19.0059C8.92773 19.0059 8.70215 18.9326 8.51465 18.7861C8.32715 18.6396 8.2041 18.4346 8.14551 18.1709L7.70605 16.3164C7.55957 16.2637 7.41602 16.208 7.27539 16.1494C7.13477 16.0967 7 16.041 6.87109 15.9824L5.24512 16.9756C5.02246 17.1104 4.79102 17.166 4.55078 17.1426C4.31641 17.125 4.1084 17.0254 3.92676 16.8438L2.80176 15.7188C2.62012 15.5371 2.51758 15.3232 2.49414 15.0771C2.4707 14.8252 2.53223 14.5908 2.67871 14.374L3.66309 12.7656C3.60449 12.6309 3.5459 12.4961 3.4873 12.3613C3.43457 12.2266 3.3877 12.0918 3.34668 11.957L1.46582 11.5088C1.20801 11.4502 1.00586 11.3301 0.859375 11.1484C0.712891 10.9609 0.639648 10.7324 0.639648 10.4629V8.88965C0.639648 8.62598 0.712891 8.40332 0.859375 8.22168C1.00586 8.03418 1.20801 7.91113 1.46582 7.85254L3.3291 7.41309C3.37012 7.25488 3.41992 7.1084 3.47852 6.97363C3.53711 6.83301 3.59277 6.7041 3.64551 6.58691L2.65234 4.94336C2.51172 4.7207 2.4502 4.49219 2.46777 4.25781C2.49121 4.01758 2.59668 3.80664 2.78418 3.625L3.92676 2.49121C4.11426 2.31543 4.31934 2.21582 4.54199 2.19238C4.76465 2.16309 4.9873 2.20996 5.20996 2.33301L6.8623 3.35254C6.98535 3.28809 7.12012 3.22656 7.2666 3.16797C7.41309 3.10937 7.55957 3.05371 7.70605 3.00098L8.14551 1.1377C8.2041 0.879883 8.32715 0.677734 8.51465 0.53125C8.70215 0.378906 8.92773 0.302734 9.19141 0.302734H10.7998C11.0635 0.302734 11.2891 0.378906 11.4766 0.53125C11.6641 0.677734 11.7842 0.879883 11.8369 1.1377L12.2852 3.01855C12.4375 3.07129 12.584 3.12695 12.7246 3.18555C12.8652 3.23828 12.9971 3.29688 13.1201 3.36133L14.7812 2.33301C15.0039 2.20996 15.2236 2.16309 15.4404 2.19238C15.6631 2.22168 15.8682 2.32129 16.0557 2.49121L17.207 3.625C17.4004 3.80664 17.5059 4.01758 17.5234 4.25781C17.541 4.49219 17.4795 4.7207 17.3389 4.94336L16.3457 6.58691C16.3926 6.7041 16.4453 6.83301 16.5039 6.97363C16.5625 7.1084 16.6182 7.25488 16.6709 7.41309L18.5254 7.85254C18.7832 7.91113 18.9854 8.03418 19.1318 8.22168C19.2783 8.40332 19.3516 8.62598 19.3516 8.88965V10.4629C19.3516 10.7324 19.2783 10.9609 19.1318 11.1484C18.9854 11.3301 18.7832 11.4502 18.5254 11.5088L16.6533 11.957C16.6064 12.0918 16.5566 12.2266 16.5039 12.3613C16.4512 12.4961 16.3926 12.6309 16.3281 12.7656L17.3213 14.374C17.4678 14.5908 17.5293 14.8252 17.5059 15.0771C17.4824 15.3232 17.377 15.5371 17.1895 15.7188L16.0645 16.8438C15.8828 17.0254 15.6719 17.125 15.4316 17.1426C15.1914 17.166 14.9629 17.1104 14.7461 16.9756L13.1201 15.9824C12.9912 16.041 12.8564 16.0967 12.7158 16.1494C12.5752 16.208 12.4316 16.2637 12.2852 16.3164L11.8369 18.1709C11.7842 18.4346 11.6641 18.6396 11.4766 18.7861C11.2891 18.9326 11.0635 19.0059 10.7998 19.0059H9.19141ZM10 12.7305C10.5625 12.7305 11.0752 12.5928 11.5381 12.3174C12.0068 12.0361 12.3789 11.6611 12.6543 11.1924C12.9297 10.7236 13.0674 10.208 13.0674 9.64551C13.0674 9.08301 12.9297 8.57324 12.6543 8.11621C12.3789 7.65332 12.0068 7.28418 11.5381 7.00879C11.0752 6.72754 10.5625 6.58691 10 6.58691C9.4375 6.58691 8.92188 6.72754 8.45312 7.00879C7.99023 7.28418 7.61816 7.65332 7.33691 8.11621C7.06152 8.57324 6.92383 9.08301 6.92383 9.64551C6.92383 10.208 7.06152 10.7236 7.33691 11.1924C7.6123 11.6611 7.98438 12.0361 8.45312 12.3174C8.92188 12.5928 9.4375 12.7305 10 12.7305Z" fill="#39A0FF"/>
</svg>
