<svg width="22" height="16" viewBox="0 0 22 16" fill="none" xmlns="http://www.w3.org/2000/svg">
<path d="M4.26758 12.4707H6.4209C6.67871 12.4707 6.88672 12.3945 7.04492 12.2422C7.20312 12.084 7.28223 11.8818 7.28223 11.6357V10.0098C7.28223 9.75781 7.20312 9.55566 7.04492 9.40332C6.88672 9.24512 6.67871 9.16602 6.4209 9.16602H4.26758C4.00977 9.16602 3.80176 9.24512 3.64355 9.40332C3.48535 9.55566 3.40625 9.75781 3.40625 10.0098V11.6357C3.40625 11.8818 3.48535 12.084 3.64355 12.2422C3.80176 12.3945 4.00977 12.4707 4.26758 12.4707ZM0.59375 5.76465H21.4062V3.70801H0.59375V5.76465ZM3.49414 15.2744C2.53906 15.2744 1.81543 15.0312 1.32324 14.5449C0.836914 14.0645 0.59375 13.3555 0.59375 12.418V2.91699C0.59375 1.97363 0.836914 1.26172 1.32324 0.78125C1.81543 0.294922 2.53906 0.0517578 3.49414 0.0517578H18.5059C19.4609 0.0517578 20.1816 0.294922 20.668 0.78125C21.1602 1.26758 21.4062 1.97949 21.4062 2.91699V12.418C21.4062 13.3555 21.1602 14.0645 20.668 14.5449C20.1816 15.0312 19.4609 15.2744 18.5059 15.2744H3.49414Z" fill="#39A0FF"/>
</svg>
