<svg width="21" height="21" viewBox="0 0 21 21" fill="none" xmlns="http://www.w3.org/2000/svg">
<path d="M17.5625 3.87988C18.5059 3.87988 19.2207 4.12012 19.707 4.60059C20.1992 5.08105 20.4453 5.79297 20.4453 6.73633V15.8242C20.4453 16.7617 20.2109 17.4707 19.7422 17.9512C19.2734 18.4375 18.6201 18.6807 17.7822 18.6807H9.52051C9.77246 18.2471 9.97168 17.7812 10.1182 17.2832C10.2646 16.791 10.3379 16.2812 10.3379 15.7539C10.3379 14.9629 10.1855 14.2188 9.88086 13.5215C9.58203 12.8242 9.16602 12.2119 8.63281 11.6846C8.09961 11.1514 7.48438 10.7354 6.78711 10.4365C6.08984 10.1318 5.3457 9.97949 4.55469 9.97949V6.73633C4.55469 5.79297 4.79785 5.08105 5.28418 4.60059C5.77051 4.12012 6.48828 3.87988 7.4375 3.87988H17.5625ZM8.85254 4.24902C8.85254 3.56934 9.01074 2.95703 9.32715 2.41211C9.64941 1.86719 10.083 1.43359 10.6279 1.11133C11.1787 0.789062 11.8027 0.62793 12.5 0.62793C13.1914 0.62793 13.8125 0.789062 14.3633 1.11133C14.9141 1.43359 15.3477 1.86719 15.6641 2.41211C15.9805 2.95703 16.1387 3.56934 16.1387 4.24902L14.4688 4.25781C14.4688 3.84766 14.3867 3.4873 14.2227 3.17676C14.0586 2.86035 13.8271 2.61426 13.5283 2.43848C13.2354 2.25684 12.8926 2.16602 12.5 2.16602C12.1074 2.16602 11.7617 2.25684 11.4629 2.43848C11.1699 2.61426 10.9385 2.86035 10.7686 3.17676C10.6045 3.4873 10.5225 3.84766 10.5225 4.25781L8.85254 4.24902ZM4.56348 20.2803C3.94238 20.2803 3.35938 20.1631 2.81445 19.9287C2.26953 19.6943 1.78906 19.3662 1.37305 18.9443C0.957031 18.5283 0.631836 18.0479 0.397461 17.5029C0.157227 16.958 0.0371094 16.375 0.0371094 15.7539C0.0371094 15.1328 0.157227 14.5498 0.397461 14.0049C0.631836 13.46 0.957031 12.9795 1.37305 12.5635C1.78906 12.1416 2.26953 11.8135 2.81445 11.5791C3.35938 11.3447 3.94238 11.2275 4.56348 11.2275C5.18457 11.2275 5.76758 11.3447 6.3125 11.5791C6.85742 11.8135 7.33789 12.1387 7.75391 12.5547C8.16992 12.9707 8.49512 13.4541 8.72949 14.0049C8.96973 14.5498 9.08984 15.1328 9.08984 15.7539C9.08984 16.3691 8.96973 16.9492 8.72949 17.4941C8.49512 18.0449 8.16699 18.5283 7.74512 18.9443C7.3291 19.3604 6.8457 19.6855 6.29492 19.9199C5.75 20.1602 5.17285 20.2803 4.56348 20.2803ZM4.55469 18.6191C4.73633 18.6191 4.87988 18.5635 4.98535 18.4521C5.09668 18.3408 5.15234 18.1973 5.15234 18.0215V16.3516H6.82227C6.99805 16.3516 7.1416 16.2959 7.25293 16.1846C7.36426 16.0791 7.41992 15.9355 7.41992 15.7539C7.41992 15.5723 7.36426 15.4287 7.25293 15.3232C7.1416 15.2119 6.99805 15.1562 6.82227 15.1562H5.15234V13.4863C5.15234 13.3105 5.09668 13.167 4.98535 13.0557C4.87988 12.9443 4.73633 12.8887 4.55469 12.8887C4.37305 12.8887 4.22656 12.9443 4.11523 13.0557C4.00977 13.167 3.95703 13.3105 3.95703 13.4863V15.1562H2.28711C2.11133 15.1562 1.96777 15.2119 1.85645 15.3232C1.74512 15.4287 1.68945 15.5723 1.68945 15.7539C1.68945 15.9355 1.74512 16.0791 1.85645 16.1846C1.96777 16.2959 2.11133 16.3516 2.28711 16.3516H3.95703V18.0215C3.95703 18.1973 4.00977 18.3408 4.11523 18.4521C4.22656 18.5635 4.37305 18.6191 4.55469 18.6191Z" fill="#39A0FF"/>
</svg>
